<?xml version="1.0" standalone="no"?>
<!DOCTYPE svg PUBLIC "-//W3C//DTD SVG 20010904//EN"
 "http://www.w3.org/TR/2001/REC-SVG-20010904/DTD/svg10.dtd">
<svg version="1.0" xmlns="http://www.w3.org/2000/svg"
 width="810.000000pt" height="810.000000pt" viewBox="0 0 810.000000 810.000000"
 preserveAspectRatio="xMidYMid meet">

<g transform="translate(0.000000,810.000000) scale(0.100000,-0.100000)"
fill="#000000" stroke="none">
<path d="M4100 5248 l-23 -93 28 -112 c18 -71 34 -113 42 -113 7 0 13 -7 13
-15 0 -8 -4 -15 -9 -15 -5 0 45 -214 111 -476 65 -262 117 -478 116 -480 -2
-1 -135 -4 -296 -6 -258 -3 -291 -2 -287 12 2 8 52 204 110 435 58 231 108
428 111 438 3 10 0 17 -8 17 -9 0 -46 -132 -118 -422 -57 -233 -106 -427 -107
-433 -2 -13 -5 -24 -47 -189 -39 -149 -41 -165 -27 -150 14 13 51 153 51 191
0 18 4 33 9 33 5 0 11 10 13 23 l3 22 299 -2 c203 -2 302 -6 306 -14 4 -6 13
-35 20 -65 8 -33 19 -54 27 -54 8 0 11 -5 7 -12 -5 -8 -3 -8 7 -2 18 11 59 13
53 2 -3 -5 -13 -7 -21 -6 -9 2 -18 -2 -20 -8 -2 -7 6 -10 22 -9 14 2 25 -2 25
-8 0 -16 10 -2 14 20 5 24 -378 1561 -392 1575 -6 6 -18 -24 -32 -84z m282
-1073 c0 -5 -5 -11 -11 -13 -6 -2 -11 4 -11 13 0 9 5 15 11 13 6 -2 11 -8 11
-13z"/>
<path d="M4456 3648 c18 -68 18 -97 -1 -104 -38 -15 -7 -24 80 -24 88 0 121
10 76 25 -19 6 -34 34 -49 94 -6 27 -15 37 -42 47 -19 7 -45 13 -57 13 -21 1
-21 0 -7 -51z"/>
<path d="M3684 3595 c-3 -14 -17 -34 -30 -44 -13 -10 -24 -22 -24 -25 0 -3 23
-6 50 -6 48 0 67 14 34 27 -12 4 -14 14 -9 39 7 40 -11 47 -21 9z"/>
<path d="M4198 3423 c-8 -10 -60 -83 -116 -163 -98 -141 -159 -211 -194 -223
-32 -11 -19 17 39 88 l57 68 -31 -6 c-18 -3 -35 -2 -38 3 -11 17 -61 11 -95
-13 -19 -12 -52 -46 -74 -74 -50 -64 -91 -97 -112 -89 -13 5 -8 15 25 51 22
24 41 49 41 55 0 5 18 19 40 30 41 21 52 46 25 56 -9 4 -33 -5 -55 -20 -22
-14 -44 -26 -49 -26 -14 0 -19 23 -10 42 6 10 5 19 -1 23 -16 10 -30 -4 -30
-32 0 -14 -12 -42 -26 -62 l-26 -36 31 32 c19 20 36 30 46 27 8 -3 15 -9 15
-13 0 -18 -63 -112 -81 -121 -11 -7 -18 -14 -16 -17 3 -2 15 0 26 7 17 9 21 8
21 -4 0 -9 -29 -34 -65 -57 -104 -65 -142 -129 -79 -129 59 0 146 69 168 133
7 20 33 54 59 77 42 37 47 39 47 21 0 -30 26 -37 66 -18 29 14 34 15 34 2 0
-17 32 -20 61 -5 11 6 19 7 19 1 0 -24 49 9 120 80 68 70 110 97 110 71 0 -5
-20 -35 -45 -67 -25 -32 -43 -65 -40 -73 3 -7 5 -16 5 -18 0 -15 63 0 88 21
l30 25 6 -25 c7 -29 41 -34 72 -10 24 18 35 19 31 3 -1 -8 10 -14 27 -16 25
-3 40 7 102 72 68 70 104 91 118 67 3 -5 -15 -26 -40 -46 -36 -30 -44 -43 -42
-64 4 -36 40 -39 89 -7 38 25 39 26 39 6 0 -31 29 -36 70 -13 32 17 37 18 36
4 -1 -10 9 -17 25 -19 19 -2 39 9 77 43 29 26 52 52 52 58 0 7 -13 -3 -28 -21
-26 -31 -79 -72 -94 -72 -5 0 -8 5 -8 12 0 10 17 33 99 132 15 18 15 19 -15
13 -17 -3 -36 -1 -42 5 -6 6 -25 8 -48 3 -29 -5 -53 -23 -103 -75 -66 -67
-103 -95 -114 -83 -10 9 18 55 52 87 17 17 31 33 31 37 0 4 -16 10 -35 13 -29
6 -35 11 -35 31 0 14 -4 25 -9 25 -15 0 -32 -27 -26 -42 8 -19 -76 -123 -115
-143 -58 -30 -54 -14 15 71 40 48 52 70 43 75 -7 4 -18 3 -24 -2 -8 -7 -15 -6
-19 2 -11 16 -79 5 -109 -19 -14 -10 -43 -42 -65 -69 -36 -46 -94 -83 -107
-70 -4 3 9 25 29 49 45 56 58 83 51 102 -12 32 -65 16 -123 -38 -19 -18 12 32
73 118 59 81 110 154 113 162 7 20 -21 17 -39 -3z m-438 -248 c-7 -8 -20 -15
-29 -15 -12 1 -11 5 8 21 26 22 41 18 21 -6z m150 -3 c0 -40 -121 -155 -142
-134 -15 15 15 64 68 111 51 44 74 52 74 23z m455 7 c10 -15 -44 -88 -89 -121
-45 -32 -56 -35 -56 -12 0 28 41 84 83 115 44 32 53 34 62 18z m398 5 c11 -12
-21 -59 -72 -108 -49 -45 -70 -53 -78 -29 -5 15 58 94 96 120 36 24 44 27 54
17z m-1163 -235 c-32 -58 -128 -135 -146 -116 -15 15 13 50 74 91 75 51 88 55
72 25z"/>
<path d="M3623 3365 c-28 -14 -89 -61 -135 -104 l-84 -79 -37 34 c-43 40 -82
44 -121 13 -43 -34 -32 -94 26 -129 l30 -18 -44 -26 c-45 -26 -92 -34 -103
-17 -3 5 -1 12 5 16 15 9 12 25 -4 25 -21 0 -27 -27 -10 -45 24 -24 76 -18
125 15 37 24 52 28 82 23 35 -5 36 -7 22 -23 -21 -23 -19 -30 8 -30 13 0 30
11 41 29 12 17 35 34 57 40 20 6 48 20 63 32 30 24 61 78 50 87 -4 4 -9 1 -11
-6 -9 -24 -55 -73 -84 -88 -16 -8 -29 -12 -29 -10 0 7 193 260 204 268 6 4 8
9 5 12 -3 3 -28 -6 -56 -19z m-55 -87 c-40 -46 -89 -103 -109 -127 l-36 -44
-7 28 c-6 24 -1 35 36 73 52 54 169 152 180 152 5 0 -24 -37 -64 -82z m-233
-52 c18 -8 39 -25 46 -37 11 -21 8 -26 -27 -56 -47 -39 -58 -40 -89 -8 -33 32
-32 68 1 94 32 25 26 24 69 7z m65 -111 c0 -36 -15 -44 -55 -29 -14 6 -12 11
11 35 36 38 44 36 44 -6z"/>
<path d="M2485 2660 c3 -19 6 -40 7 -45 1 -6 12 -11 24 -11 12 0 20 4 17 9 -3
4 -8 6 -11 3 -7 -8 -34 32 -28 42 2 4 1 14 -5 22 -6 10 -7 4 -4 -20z"/>
</g>
</svg>
